<?xml version="1.0" encoding="utf-8"?>
<!-- Generator: Adobe Illustrator 27.5.0, SVG Export Plug-In . SVG Version: 6.00 Build 0)  -->
<svg version="1.1" id="Layer_2_00000058555257343557516810000014697384187663757233_"
	 xmlns="http://www.w3.org/2000/svg" xmlns:xlink="http://www.w3.org/1999/xlink" x="0px" y="0px" viewBox="0 0 1070.7 91.5"
	 style="enable-background:new 0 0 1070.7 91.5;" xml:space="preserve">
<style type="text/css">
	.st0{fill:#4CB648;}
	.st1{fill:#ADE83A;}
	.st2{fill:#52D6FF;}
	.st3{fill:#10365A;}
	.st4{enable-background:new    ;}
	.st5{fill:#58595B;}
	.st6{fill:none;stroke:#58595B;stroke-width:3;stroke-miterlimit:10;}
</style>
<path class="st0" d="M88.5,0.2L88.5,0.2c-3.7,0-12.7,0.6-21.8,5.7c-0.1,0.1-0.3,0.2-0.4,0.2c-0.5,0.3-1,0.6-1.5,0.9
	c-0.6,0.4-1.2,0.8-1.8,1.2c-0.3,0.2-0.7,0.5-1,0.7c-0.5,0.4-1.1,0.8-1.6,1.3c-0.2,0.1-0.3,0.3-0.5,0.4c-0.7,0.6-1.5,1.3-2.1,2
	c-0.1,0.1-0.2,0.2-0.3,0.3c-4.6,4.7-8.1,10.4-10.2,16.8c0,0,0,0,0,0c-1.4,4.2-2.1,8.7-2.1,13.3v47.9h1.7l0,0
	c3.7,0,12.7-0.6,21.8-5.7c0.2-0.1,0.3-0.2,0.4-0.2c0.5-0.3,1-0.6,1.5-0.9c0.6-0.4,1.2-0.8,1.8-1.2c0.3-0.2,0.7-0.5,1-0.7
	c0.5-0.4,1.1-0.8,1.6-1.3c0.2-0.1,0.3-0.3,0.5-0.4c0.7-0.6,1.4-1.3,2.1-2c0.1-0.1,0.2-0.2,0.3-0.3c4.6-4.7,8.1-10.4,10.2-16.8
	c0,0,0,0,0,0c1.4-4.2,2.1-8.7,2.1-13.3V0.2H88.5L88.5,0.2z"/>
<path class="st1" d="M91.9,0.2L91.9,0.2c3.7,0,12.7,0.6,21.8,5.7c0.1,0.1,0.3,0.2,0.4,0.2c0.5,0.3,1,0.6,1.5,0.9
	c0.6,0.4,1.2,0.8,1.8,1.2c0.3,0.2,0.7,0.5,1,0.7c0.5,0.4,1.1,0.8,1.6,1.3c0.2,0.1,0.3,0.3,0.5,0.4c0.7,0.6,1.4,1.3,2.1,2
	c0.1,0.1,0.2,0.2,0.3,0.3c4.6,4.7,8.1,10.4,10.2,16.8c0,0,0,0,0,0c1.4,4.2,2.1,8.7,2.1,13.3v47.9h-1.7l0,0c-3.6,0-12.7-0.6-21.8-5.7
	c-0.2-0.1-0.3-0.2-0.4-0.2c-0.5-0.3-1-0.6-1.5-0.9c-0.6-0.4-1.2-0.8-1.8-1.2c-0.3-0.2-0.7-0.5-1-0.7c-0.5-0.4-1.1-0.8-1.6-1.3
	c-0.2-0.1-0.3-0.3-0.5-0.4c-0.7-0.6-1.4-1.3-2.1-2c-0.1-0.1-0.2-0.2-0.3-0.3c-4.6-4.7-8.1-10.4-10.2-16.8c0,0,0,0,0,0
	c-1.4-4.2-2.1-8.7-2.1-13.3V0.2C90.2,0.2,91.9,0.2,91.9,0.2z"/>
<path class="st2" d="M43.4,90.9L43.4,90.9c-3.7,0-12.6-0.6-21.8-5.7c-0.1-0.1-0.3-0.2-0.4-0.2c-0.5-0.3-1-0.6-1.5-0.9
	c-0.6-0.4-1.2-0.8-1.8-1.2c-0.3-0.2-0.7-0.5-1-0.7c-0.5-0.4-1.1-0.8-1.6-1.3c-0.2-0.1-0.3-0.3-0.5-0.4c-0.7-0.6-1.4-1.3-2.1-2
	c-0.1-0.1-0.2-0.2-0.3-0.3C7.8,73.5,4.2,67.7,2.2,61.4c0,0,0,0,0,0C0.8,57.2,0,52.7,0,48.1V0.2h1.7l0,0c3.6,0,12.6,0.6,21.8,5.7
	c0.1,0.1,0.3,0.2,0.4,0.2c0.5,0.3,1,0.6,1.5,0.9c0.6,0.4,1.2,0.8,1.8,1.2c0.3,0.2,0.7,0.5,1,0.7c0.5,0.4,1.1,0.8,1.6,1.3
	c0.2,0.1,0.3,0.3,0.5,0.4c0.7,0.6,1.5,1.3,2.1,2c0.1,0.1,0.2,0.2,0.3,0.3c4.6,4.7,8.1,10.4,10.2,16.8c0,0,0,0,0,0
	c1.4,4.2,2.1,8.7,2.1,13.3v47.9L43.4,90.9L43.4,90.9z"/>
<path class="st3" d="M621.7,30.5c6.3,0,9.3-2.9,9.3-7.3v-4h-24.3V4.8h-1.5c-1.7,0-5.7,2.5-7.4,5c-2,2.9-3,6.9-3,11v46
	c0,16.3,6.9,24.5,22.6,24.5c8.2,0,12.8-3.2,12.8-9.1v-4.2h-0.7c-2.5,1.6-6.7,2-11.1,2c-7.7,0-11.6-4.2-11.6-14.3v-35H621.7z
	 M529.2,50.5l0.1-2.9c0.4-9.1,7.8-18.9,19.4-18.9s16.4,6.7,16.4,14.4c0,5.3-2.9,6.9-20,7.1L529.2,50.5L529.2,50.5z M576.8,42.4
	c0-14.1-13-24.6-26.7-24.6c-18.8,0-33.1,15.2-33.1,38.1c0,20.4,13.8,35.3,33.2,35.3c15.9,0,23.8-5.7,23.8-13.1v-5.3h-0.7
	c-4,3.8-10.6,7.3-21.4,7.3c-13.2,0-21.4-8.3-22.6-20.1h17.5C571,60,576.9,54.9,576.8,42.4 M472.1,17.9c-18.1,0-30,11.6-30,31.5v32.4
	c0,5.6,3,8.2,7.4,8.2h4.5V49.6c0-14.4,6.1-20.4,16.7-20.4c12.6,0,18,5.7,18,20.4v32.5c0,5.3,2.6,7.8,7.5,7.8h4.4V49.2
	C500.6,28,489.8,17.9,472.1,17.9 M412.1,65.7c0,10.2-4.4,14.4-15.1,14.4c-9.1,0-15.2-4.9-15.2-11.1c0-7.8,6.5-12.2,20.6-12.2h9.7
	L412.1,65.7L412.1,65.7z M396.5,17.9c-15.9,0-24.3,8.5-24.3,14.9v5.8h0.7c4.1-5.7,11.9-9.6,22.5-9.6c11.5,0,16.7,4.2,16.7,14.6v3.3
	h-9.5c-21.1,0-32.9,8.3-32.9,23.5c0,12.6,12.6,20.9,27,20.9c19.8,0,27.5-10.3,27.5-24.6V44.4C424,27.3,414.5,17.9,396.5,17.9
	 M324.4,17.9c-18.1,0-30,11.6-30,31.5v32.4c0,5.6,3,8.2,7.4,8.2h4.5V49.6c0-14.4,6.1-20.4,16.7-20.4c12.6,0,18,5.7,18,20.4v32.5
	c0,5.3,2.6,7.8,7.5,7.8h4.4V49.2C352.9,28,342.2,17.9,324.4,17.9 M268.4,0h-4.6v49.3c0,21.5-6.3,30.7-23.4,30.7s-24.2-9.4-24.2-31.7
	V9.5c0-7.1-2.1-9.5-7.9-9.5H204v49.3c0,26.6,11.8,41.9,35.6,41.9s36.4-15.6,36.4-43V8.9C275.9,2.9,273.4,0,268.4,0"/>
<polygon class="st3" points="638.9,80.5 636.9,80.5 636.9,79.8 641.7,79.8 641.7,80.5 639.7,80.5 639.7,86.2 638.9,86.2 "/>
<polygon class="st3" points="642.8,79.8 643.8,79.8 645.9,84.9 645.9,84.9 648,79.8 649,79.8 649,86.2 648.2,86.2 648.2,81 
	648.2,81 646,86.2 645.7,86.2 643.5,81 643.5,81 643.5,86.2 642.8,86.2 "/>
<g class="st4">
	<path class="st5" d="M720,52.4c0-13.2,10.1-22.8,23.7-22.8c6.9,0,12.9,2.4,17,7l-4.1,4c-3.4-3.6-7.7-5.3-12.6-5.3
		c-10.1,0-17.6,7.3-17.6,17.2c0,9.9,7.5,17.2,17.6,17.2c4.9,0,9.1-1.7,12.6-5.4l4.1,4c-4.1,4.6-10.1,7-17,7
		C730,75.2,720,65.6,720,52.4z"/>
	<path class="st5" d="M799.6,74.7L790,61c-0.9,0.1-1.9,0.1-2.8,0.1h-11v13.6h-6.4V30h17.4c11.6,0,18.6,5.9,18.6,15.6
		c0,6.9-3.6,11.9-9.8,14.1l10.6,15H799.6z M799.4,45.6c0-6.4-4.3-10-12.4-10h-10.9v20.1H787C795.1,55.7,799.4,52,799.4,45.6z"/>
	<path class="st5" d="M857.6,74.7l-0.1-32.6l-16.1,27.1h-2.9l-16.1-26.9v32.4h-6.1V30h5.2L840,61.4L858.4,30h5.2l0.1,44.7H857.6z"/>
</g>
<g class="st4">
	<path class="st5" d="M905,66.8c0,4.8-3.4,8.1-8,8.1c-2.3,0-4.4-0.9-5.6-2.7v2.5h-2.7V52.6h2.9v8.7c1.3-1.7,3.3-2.5,5.5-2.5
		C901.7,58.8,905,62,905,66.8z M902.1,66.8c0-3.4-2.3-5.5-5.3-5.5c-3,0-5.3,2.2-5.3,5.5s2.3,5.6,5.3,5.6
		C899.8,72.4,902.1,70.2,902.1,66.8z"/>
</g>
<g class="st4">
	<path class="st5" d="M922.5,58.9l-7.7,17.4c-1.4,3.3-3.2,4.4-5.6,4.4c-1.5,0-3.1-0.5-4.1-1.5l1.2-2.1c0.8,0.7,1.8,1.2,2.8,1.2
		c1.4,0,2.2-0.6,3-2.4l0.5-1.1l-7-15.8h3l5.5,12.6l5.5-12.6H922.5z"/>
</g>
<g class="st4">
	<path class="st5" d="M932,64.3c0-6.2,4.7-10.7,11.1-10.7c3.2,0,6,1.1,7.9,3.2l-1.9,1.9c-1.6-1.7-3.6-2.5-5.9-2.5
		c-4.7,0-8.2,3.4-8.2,8s3.5,8,8.2,8c2.3,0,4.3-0.8,5.9-2.5l1.9,1.9c-1.9,2.1-4.7,3.3-8,3.3C936.7,74.9,932,70.4,932,64.3z"/>
</g>
<g class="st4">
	<path class="st5" d="M952.7,66.8c0-4.7,3.5-8,8.2-8c4.7,0,8.2,3.3,8.2,8s-3.5,8.1-8.2,8.1C956.2,74.9,952.7,71.5,952.7,66.8z
		 M966.2,66.8c0-3.4-2.3-5.5-5.3-5.5s-5.3,2.2-5.3,5.5s2.3,5.6,5.3,5.6S966.2,70.2,966.2,66.8z"/>
	<path class="st5" d="M971.1,73l1.2-2.3c1.3,1,3.5,1.6,5.5,1.6c2.7,0,3.8-0.8,3.8-2.1c0-3.5-10-0.5-10-6.8c0-2.8,2.5-4.7,6.6-4.7
		c2.1,0,4.4,0.5,5.8,1.4l-1.2,2.3c-1.4-0.9-3-1.3-4.6-1.3c-2.5,0-3.7,0.9-3.7,2.2c0,3.7,10,0.7,10,6.8c0,2.9-2.6,4.7-6.8,4.7
		C975,74.9,972.4,74.1,971.1,73z"/>
	<path class="st5" d="M1002.2,67.8h-12.8c0.4,2.8,2.6,4.6,5.7,4.6c1.8,0,3.4-0.6,4.6-1.9l1.6,1.8c-1.4,1.7-3.6,2.6-6.2,2.6
		c-5.1,0-8.5-3.4-8.5-8.1c0-4.7,3.4-8,7.9-8s7.8,3.3,7.8,8.1C1002.3,67.1,1002.3,67.5,1002.2,67.8z M989.4,65.7h10.1
		c-0.3-2.7-2.3-4.5-5.1-4.5C991.7,61.2,989.7,63,989.4,65.7z"/>
	<path class="st5" d="M1021.3,65.6v9.1h-2.9v-8.8c0-3.1-1.6-4.6-4.3-4.6c-3,0-5,1.8-5,5.2v8.1h-2.9V58.9h2.7v2.4
		c1.2-1.6,3.2-2.5,5.7-2.5C1018.6,58.8,1021.3,61,1021.3,65.6z"/>
	<path class="st5" d="M1035.5,73.8c-0.9,0.7-2.2,1.1-3.5,1.1c-3.2,0-5-1.8-5-4.9v-8.7h-2.7v-2.4h2.7v-3.5h2.9v3.5h4.5v2.4h-4.5v8.6
		c0,1.7,0.9,2.7,2.5,2.7c0.8,0,1.6-0.3,2.2-0.7L1035.5,73.8z"/>
	<path class="st5" d="M1038.4,54c0-1,0.8-1.9,1.9-1.9s1.9,0.8,1.9,1.8c0,1.1-0.8,1.9-1.9,1.9C1039.2,55.9,1038.4,55.1,1038.4,54z
		 M1038.9,58.9h2.9v15.8h-2.9V58.9z"/>
	<path class="st5" d="M1059.8,65.2v9.5h-2.7v-2.1c-1,1.4-2.7,2.3-5.2,2.3c-3.6,0-5.8-1.9-5.8-4.7c0-2.5,1.6-4.6,6.4-4.6h4.5V65
		c0-2.4-1.4-3.8-4.2-3.8c-1.9,0-3.8,0.7-5,1.7l-1.2-2.1c1.6-1.3,4-2,6.5-2C1057.3,58.8,1059.8,60.8,1059.8,65.2z M1056.9,69.9v-2.2
		h-4.4c-2.8,0-3.6,1.1-3.6,2.4c0,1.6,1.3,2.6,3.5,2.6C1054.5,72.7,1056.2,71.7,1056.9,69.9z"/>
	<path class="st5" d="M1065.1,52.6h2.9v22.1h-2.9V52.6z"/>
</g>
<line class="st6" x1="685.2" y1="14.5" x2="685.2" y2="87.9"/>
</svg>
